<svg xmlns="http://www.w3.org/2000/svg" viewBox="0 0 452 112">
  <g fill="#19CEDA" transform="matrix(5.04201656428025,0,0,5.04201656428025,127.9346549475338,9.21944046234325)">
    <path d="M10.51 8.46C10.51 5.75 8.53 3.59 5.57 3.59C2.60 3.59 0.63 5.75 0.63 8.46C0.63 11.00 2.35 13.05 5.00 13.31L9.61 15.14L10.16 13.77L7.53 12.99C9.38 12.26 10.51 10.51 10.51 8.46ZM2.17 8.46C2.17 6.53 3.49 4.91 5.57 4.91C7.66 4.91 8.97 6.53 8.97 8.46C8.97 10.37 7.66 12.02 5.57 12.02C3.49 12.02 2.17 10.37 2.17 8.46ZM14.89 13.33C16.33 13.33 17.85 12.67 17.85 10.31L17.85 6.53L16.44 6.53L16.44 10.32C16.44 11.43 15.90 12.12 14.89 12.12C13.88 12.12 13.34 11.43 13.34 10.32L13.34 6.53L11.93 6.53L11.93 10.31C11.93 12.67 13.45 13.33 14.89 13.33ZM20.37 5.26C20.88 5.26 21.29 4.86 21.29 4.36C21.29 3.86 20.88 3.46 20.37 3.46C19.88 3.46 19.47 3.86 19.47 4.36C19.47 4.86 19.88 5.26 20.37 5.26ZM19.70 13.15L21.09 13.15L21.09 6.53L19.70 6.53ZM26.13 13.34C27.05 13.34 27.80 13.07 28.41 12.60L27.59 11.58C27.23 11.93 26.72 12.13 26.16 12.13C24.86 12.13 24.09 11.14 24.09 9.84C24.09 8.55 24.86 7.57 26.16 7.57C26.72 7.57 27.23 7.77 27.59 8.12L28.41 7.10C27.80 6.64 27.05 6.36 26.13 6.36C24.08 6.36 22.65 7.89 22.65 9.84C22.65 11.81 24.08 13.34 26.13 13.34ZM35.77 13.15L32.21 9.54L35.36 6.53L33.51 6.53L30.93 9.04L30.93 3.24L29.52 3.24L29.52 13.15L30.93 13.15L30.93 10.06L33.89 13.15ZM35.90 12.22C36.39 12.88 37.39 13.34 38.63 13.34C40.26 13.34 41.27 12.54 41.27 11.35C41.27 9.00 37.77 9.79 37.77 8.36C37.77 7.86 38.15 7.53 38.92 7.51C39.40 7.50 39.96 7.73 40.35 8.11L41.13 7.22C40.69 6.75 39.84 6.36 38.86 6.36C37.29 6.36 36.33 7.19 36.33 8.41C36.33 10.82 39.77 10.09 39.77 11.38C39.77 11.87 39.36 12.21 38.54 12.21C37.89 12.21 37.29 11.97 36.81 11.35ZM48.91 9.70C48.91 7.73 47.59 6.36 45.66 6.36C43.68 6.36 42.25 7.89 42.25 9.84C42.25 11.80 43.66 13.31 45.84 13.31C46.97 13.31 47.94 12.92 48.53 12.25L47.56 11.46C47.13 11.94 46.56 12.19 45.82 12.19C44.58 12.19 43.84 11.33 43.74 10.15L48.91 10.15ZM45.66 7.50C46.70 7.50 47.37 8.12 47.51 9.17L43.79 9.17C44.00 8.17 44.68 7.50 45.66 7.50ZM53.77 6.36C52.84 6.36 52.14 6.75 51.73 7.32L51.55 6.53L50.31 6.53L50.31 13.15L51.73 13.15L51.73 9.11C51.84 7.95 52.63 7.57 53.38 7.57C54.40 7.57 54.83 8.30 54.83 9.38L54.83 13.15L56.25 13.15L56.25 9.06C56.25 7 54.92 6.36 53.77 6.36ZM62.85 3.24L62.85 7.32C62.34 6.72 61.61 6.36 60.67 6.36C58.95 6.36 57.57 7.69 57.57 9.84C57.57 12.00 58.95 13.31 60.67 13.31C61.66 13.31 62.43 12.91 62.94 12.25L63.12 13.15L64.27 13.15L64.27 3.24ZM61.00 12.12C59.81 12.12 59.02 11.14 59.02 9.84C59.02 8.55 59.81 7.55 61.00 7.55C62.24 7.55 63.04 8.55 63.04 9.84C63.04 11.14 62.24 12.12 61.00 12.12Z"></path>
  </g>

  <g transform="matrix(1.1111112806532117,0,0,1.1111112806532117,0.44443596733941604,0.4444274902330818)" stroke="none" fill="#19CEDA">
    <path d="M80.652 0H19.348C8.662 0 0 8.662 0 19.348v61.306c0 4.393 1.466 8.44 3.934 11.688L21.361 73.18l-.831-.832 2.769-4.059-1.186-1.186a65.06 65.06 0 0 1 3.752-12.804l-2.473-1.363-14.018 5.16a1.737 1.737 0 0 1-.356.09 1.826 1.826 0 0 1-1.517-.515c-.351-.353-.853-1.136-.269-2.437.25-.558.72-1.278 1.438-2.205 1.807-2.331 5.19-5.98 10.057-10.848 2.712-2.712 5.528-4.597 8.369-5.603 2.474-.876 4.984-1.098 7.46-.658.716.127 1.402.306 2.056.521a76.198 76.198 0 0 1 3.121-3.517 67.062 67.062 0 0 1 1.732-1.765 35.767 35.767 0 0 1 10.428-7.056c3.229-1.435 6.828-2.499 10.931-3.059a51.124 51.124 0 0 1 3.181-.316 48.9 48.9 0 0 1 3.404-.093c1.178.012 2.394.063 3.673.177l.479.044c.162.015.33.037.494.057l.993.118 1.03.157c.081.011.164.026.249.042l5.141-4.626a.818.818 0 0 1 1.157.062.825.825 0 0 1 0 1.097L78 22.904c.016.084.029.168.041.247l.158 1.032.117.992c.02.164.041.334.057.494l.045.48c.113 1.279.164 2.496.177 3.673a47.633 47.633 0 0 1-.094 3.404 52.627 52.627 0 0 1-.315 3.181c-.56 4.104-1.623 7.701-3.06 10.93a35.723 35.723 0 0 1-7.056 10.429 64.112 64.112 0 0 1-1.766 1.731 76.792 76.792 0 0 1-3.517 3.121c.217.653.396 1.34.522 2.056.438 2.477.217 4.987-.658 7.461-1.006 2.842-2.892 5.656-5.604 8.369-4.866 4.867-8.516 8.25-10.847 10.057-.927.719-1.648 1.188-2.206 1.438-1.3.584-2.085.082-2.437-.269a1.821 1.821 0 0 1-.513-1.519 1.73 1.73 0 0 1 .088-.354l5.162-14.019-1.364-2.474a65.079 65.079 0 0 1-12.804 3.751l-1.186-1.187-4.057 2.772-1.21-1.21L6.194 94.836A19.275 19.275 0 0 0 19.348 100h61.304C91.338 100 100 91.338 100 80.652V19.348C100 8.662 91.338 0 80.652 0zM23.049 74.867l-.803-.805-16.131 17.74 16.934-16.935zm1.743 1.742l-.859-.858L9.172 90.512l15.62-13.903zm38.493-45.162a4.504 4.504 0 1 1-.001 9.007 4.504 4.504 0 0 1 .001-9.007zm-11.942 11.94a4.503 4.503 0 1 1 0 9.006 4.503 4.503 0 0 1 0-9.006z"></path>
  </g>
</svg>
